<svg xmlns="http://www.w3.org/2000/svg" version="1.1" xmlns:xlink="http://www.w3.org/1999/xlink" xmlns:svgjs="http://svgjs.dev/svgjs" width="2000" height="1500" viewBox="0 0 2000 1500"><rect width="2000" height="1500" fill="#000000"></rect><g transform="matrix(0.3118178983473651,0,0,0.3118178983473651,689.1626376593681,250.40485829959516)"><svg viewBox="0 0 154 247" data-background-color="#444444" preserveAspectRatio="xMidYMid meet" height="3207" width="2000" xmlns="http://www.w3.org/2000/svg" xmlns:xlink="http://www.w3.org/1999/xlink"><g id="tight-bounds" transform="matrix(1,0,0,1,-0.24213258096671098,-0.09999999999999432)"><svg viewBox="0 0 154.48426516193342 247.2" height="247.2" width="154.48426516193342"><g><svg viewBox="0 0 231.720527340824 370.7906064" height="247.2" width="154.48426516193342"><g><svg viewBox="0 0 231.720527340824 370.7906064" height="370.7906064" width="231.720527340824"><g id="textblocktransform"><svg viewBox="0 0 231.720527340824 370.7906064" height="370.7906064" width="231.720527340824" id="textblock"><g><rect width="231.720527340824" height="247.2" fill="none" stroke-width="9.018103199999999" stroke="#ffffff" data-fill-palette-color="none" data-stroke-palette-color="tertiary"></rect><rect width="231.720527340824" height="123.5906064" y="247.2" fill="#ffffff" data-fill-palette-color="tertiary"></rect></g><g><svg viewBox="0 0 231.720527340824 247.2" height="247.2" width="231.720527340824"><g transform="matrix(1,0,0,1,23.607599999999998,23.607599999999998)"><svg width="184.50532734082398" viewBox="5 -39.54999923706055 36.95000076293945 40.04999923706055" height="199.9848" data-palette-color="#ffffff"><path d="M6.5 0L6.5 0Q5.85 0 5.43-0.43 5-0.85 5-1.5L5-1.5 5-37.55Q5-38.2 5.43-38.63 5.85-39.05 6.5-39.05L6.5-39.05Q7.15-39.05 7.58-38.63 8-38.2 8-37.55L8-37.55 8-1.5Q8-0.85 7.58-0.43 7.15 0 6.5 0ZM29.7 0.5L29.7 0.5Q26.55 0.5 23.92-0.38 21.3-1.25 19.4-2.88 17.5-4.5 16.4-6.7L16.4-6.7Q16.1-7.3 16.37-7.85 16.65-8.4 17.3-8.6L17.3-8.6Q17.85-8.8 18.4-8.55 18.95-8.3 19.25-7.75L19.25-7.75Q20.15-6.15 21.62-4.95 23.1-3.75 25.12-3.13 27.15-2.5 29.7-2.5L29.7-2.5Q32.55-2.5 34.62-3.45 36.7-4.4 37.82-6.25 38.95-8.1 38.95-10.75L38.95-10.75Q38.95-14.05 36.57-16.32 34.2-18.6 29.35-19.25L29.35-19.25Q23.75-20.05 20.6-22.88 17.45-25.7 17.45-29.75L17.45-29.75Q17.45-32.7 18.92-34.9 20.4-37.1 23.07-38.33 25.75-39.55 29.25-39.55L29.25-39.55Q31.85-39.55 34.05-38.7 36.25-37.85 37.9-36.48 39.55-35.1 40.45-33.6L40.45-33.6Q40.8-33.05 40.62-32.43 40.45-31.8 39.8-31.55L39.8-31.55Q39.25-31.35 38.7-31.53 38.15-31.7 37.8-32.2L37.8-32.2Q37.1-33.25 36-34.25 34.9-35.25 33.25-35.9 31.6-36.55 29.25-36.55L29.25-36.55Q25.15-36.55 22.8-34.7 20.45-32.85 20.45-29.45L20.45-29.45Q20.45-27.65 21.42-26.18 22.4-24.7 24.5-23.65 26.6-22.6 29.85-22.05L29.85-22.05Q36.3-20.95 39.12-18.07 41.95-15.2 41.95-10.75L41.95-10.75Q41.95-8.15 41.07-6.05 40.2-3.95 38.57-2.5 36.95-1.05 34.7-0.28 32.45 0.5 29.7 0.5Z" opacity="1" transform="matrix(1,0,0,1,0,0)" fill="#ffffff" class="wordmark-text-0" data-fill-palette-color="primary" id="text-0"></path></svg></g></svg></g></svg></g></svg></g></svg></g><defs></defs></svg><rect width="154.48426516193342" height="247.2" fill="none" stroke="none" visibility="hidden"></rect></g></svg></g></svg>